<?xml version="1.0" standalone="no"?>
<!DOCTYPE svg PUBLIC "-//W3C//DTD SVG 20010904//EN"
 "http://www.w3.org/TR/2001/REC-SVG-20010904/DTD/svg10.dtd">
<svg version="1.0" xmlns="http://www.w3.org/2000/svg"
 width="260.000000pt" height="260.000000pt" viewBox="0 0 260.000000 260.000000"
 preserveAspectRatio="xMidYMid meet">
<metadata>
Created by potrace 1.11, written by Peter Selinger 2001-2013
</metadata>
<g transform="translate(0.000000,260.000000) scale(0.100000,-0.100000)"
fill="#000000" stroke="none">
<path d="M795 2281 c-3 -3 -12 -6 -20 -8 -25 -5 -39 -9 -65 -20 -14 -6 -27
-10 -30 -10 -5 0 -42 -31 -88 -73 -38 -35 -82 -96 -75 -104 4 -3 2 -6 -4 -6
-10 0 -28 -46 -25 -62 1 -5 -2 -8 -7 -8 -5 0 -8 -13 -7 -30 1 -16 -1 -30 -5
-30 -5 0 -6 -33 -4 -72 5 -80 7 -91 22 -128 6 -14 9 -28 6 -32 -2 -5 1 -8 6
-8 6 0 11 -6 11 -13 0 -7 9 -23 20 -35 11 -12 20 -24 20 -27 0 -10 78 -85 89
-85 6 0 11 -3 11 -8 0 -6 68 -41 95 -48 6 -2 25 -7 43 -13 40 -12 272 -11 289
1 7 5 14 5 18 -2 4 -6 13 -7 23 -2 9 5 33 9 52 10 20 2 46 4 58 7 26 5 27 -1
5 -51 -9 -22 -16 -45 -14 -51 1 -7 -2 -13 -7 -13 -5 0 -9 -6 -9 -12 -1 -12
-43 -129 -63 -173 -4 -11 -16 -41 -26 -67 -15 -44 -24 -53 -46 -49 -5 0 -8 -4
-8 -11 0 -6 -3 -9 -6 -5 -3 3 -27 -4 -52 -15 -69 -29 -97 -40 -98 -36 -1 2
-10 -4 -20 -12 -11 -8 -29 -21 -42 -28 -12 -6 -32 -18 -44 -25 -13 -6 -28 -19
-35 -27 -7 -8 -13 -12 -13 -8 -1 25 -192 -171 -196 -201 0 -3 -4 -14 -8 -23
-4 -9 -9 -25 -11 -35 -2 -10 -4 -20 -5 -23 -9 -21 5 -110 22 -147 18 -39 87
-117 106 -119 4 0 21 -7 37 -14 41 -18 195 -18 195 0 0 4 16 12 35 20 19 7 32
17 29 21 -2 4 4 10 13 13 17 6 101 123 99 137 -1 4 7 15 16 26 21 23 118 213
118 230 0 7 5 13 10 13 6 0 10 9 10 20 0 11 5 20 11 20 5 0 8 4 5 8 -7 12 24
53 35 47 5 -4 9 -2 9 2 0 5 11 9 25 9 24 0 33 -15 18 -30 -12 -12 -15 -39 -16
-131 -1 -105 0 -111 35 -187 25 -55 114 -158 135 -158 6 0 13 -7 17 -15 3 -8
9 -14 13 -13 4 1 23 -6 41 -15 18 -10 37 -15 42 -12 5 3 11 1 15 -5 4 -6 11
-8 16 -5 5 4 9 2 9 -3 0 -5 39 -8 88 -6 114 4 132 6 132 16 0 4 6 8 13 8 16 1
79 31 101 50 57 49 122 120 109 120 -3 0 1 8 9 18 16 19 36 66 41 97 1 11 5
25 9 30 6 10 2 149 -5 175 -13 49 -57 140 -68 140 -5 0 -9 4 -9 10 0 12 -55
68 -95 96 -35 25 -91 52 -125 61 -32 8 -320 12 -325 4 -2 -4 -24 -6 -49 -6
-25 0 -46 -3 -46 -6 0 -3 -13 -5 -30 -5 -33 0 -36 5 -17 25 10 11 9 12 -1 6
-11 -5 -11 -3 -3 11 13 22 34 75 36 89 1 6 7 21 12 35 6 14 12 30 13 35 1 6 6
16 12 22 6 7 8 20 4 28 -3 8 -1 15 5 15 6 0 7 5 4 10 -3 6 -2 10 2 10 5 0 17
26 28 58 21 62 27 68 96 93 56 20 202 88 209 97 3 4 18 14 33 22 16 8 40 24
53 37 13 12 24 20 24 17 0 -6 75 70 123 123 15 17 27 38 27 47 0 9 4 16 9 16
17 0 28 100 18 160 -10 54 -69 150 -94 150 -7 0 -13 5 -13 10 0 6 -7 10 -15
10 -8 0 -15 3 -15 8 0 15 -75 30 -134 26 -80 -5 -86 -6 -86 -15 0 -4 -10 -10
-22 -13 -13 -3 -32 -14 -43 -24 -44 -37 -173 -234 -167 -254 1 -5 -2 -8 -8 -8
-5 0 -10 -7 -10 -15 0 -8 -5 -15 -11 -15 -5 0 -8 -4 -4 -9 3 -5 1 -12 -5 -16
-6 -4 -8 -10 -5 -15 3 -4 -2 -11 -11 -14 -8 -3 -13 -10 -9 -15 3 -5 1 -12 -5
-16 -5 -3 -10 -15 -10 -26 0 -10 -5 -19 -11 -19 -5 0 -7 -4 -4 -10 3 -5 1 -10
-4 -10 -6 0 -11 -9 -11 -19 0 -29 -33 -63 -65 -66 -17 -2 -41 -6 -55 -10 -43
-10 -103 -18 -142 -19 -21 -1 -38 -4 -38 -7 0 -3 -26 -5 -57 -4 -32 1 -68 -3
-80 -7 -13 -4 -23 -4 -23 1 0 4 -16 7 -35 4 -23 -2 -51 5 -82 21 -47 24 -90
64 -85 79 1 4 -2 7 -8 7 -5 0 -10 9 -10 19 0 11 -4 22 -8 25 -7 4 -9 111 -2
111 1 0 3 9 5 19 2 10 10 23 17 27 7 5 9 9 3 9 -17 0 79 81 105 88 54 14 140
6 170 -16 16 -12 34 -22 40 -22 5 0 10 -7 10 -15 0 -8 4 -15 10 -15 13 0 37
-48 45 -93 8 -40 2 -38 120 -38 106 0 98 -5 91 49 -8 67 -9 71 -38 133 -47
103 -148 188 -264 222 -47 14 -188 20 -199 8z m1032 -207 c12 -3 26 -19 32
-35 9 -27 6 -33 -58 -98 -37 -38 -77 -72 -89 -75 -12 -4 -22 -12 -22 -18 0 -6
-3 -8 -7 -5 -3 4 -17 -2 -29 -14 -13 -12 -21 -15 -19 -8 8 35 18 59 24 59 4 0
13 16 20 35 7 19 17 35 22 35 5 0 9 6 9 14 0 7 7 19 15 26 8 7 12 16 9 21 -3
5 2 12 10 15 9 3 16 11 16 16 0 10 29 37 40 38 3 0 15 -3 27 -6z m-10 -1160
c28 -18 83 -70 83 -78 0 -3 5 -17 12 -33 18 -45 16 -114 -5 -158 -21 -44 -66
-90 -97 -100 -11 -3 -20 -10 -20 -14 0 -4 -10 -7 -22 -6 -13 1 -29 -2 -35 -8
-7 -5 -13 -6 -13 -1 0 5 -17 10 -37 11 -20 1 -49 11 -64 23 -16 11 -32 20 -37
20 -5 0 -15 11 -22 25 -7 14 -17 25 -22 25 -4 0 -8 9 -8 19 0 11 -4 22 -8 25
-8 4 -13 38 -13 81 0 9 7 44 11 55 1 3 2 8 1 13 0 4 4 7 9 7 6 0 9 3 8 8 -7
19 47 68 107 97 39 19 134 13 172 -11z m-875 -192 c-14 -26 -30 -50 -35 -53
-5 -3 -7 -8 -6 -10 6 -7 -66 -117 -84 -128 -42 -27 -97 21 -73 64 17 30 109
125 123 125 6 0 13 4 15 9 2 5 10 11 18 13 8 2 23 11 34 20 32 29 36 11 8 -40z"/>
</g>
</svg>
